<svg width="39" height="39" viewBox="0 0 39 39" fill="none" xmlns="http://www.w3.org/2000/svg">
<path fill-rule="evenodd" clip-rule="evenodd" d="M19.4999 1.07935e-06C14.8683 -0.00153923 10.3873 1.64557 6.85933 4.64642C3.33131 7.64727 0.986612 11.8059 0.245027 16.3778C-0.496558 20.9497 0.413395 25.6362 2.81197 29.5984C5.21054 33.5606 8.94111 36.5397 13.3358 38.0022C14.3045 38.1831 14.6661 37.5792 14.6661 37.0626C14.6661 36.5976 14.65 35.0638 14.6403 33.4332C9.21554 34.6118 8.07246 31.1341 8.07246 31.1341C7.18449 28.8738 5.9058 28.2797 5.9058 28.2797C4.1363 27.0688 6.03819 27.0946 6.03819 27.0946C7.9982 27.2335 9.02825 29.1031 9.02825 29.1031C10.7687 32.0835 13.5908 31.2245 14.7016 30.7176C14.8792 29.4583 15.3829 28.5994 15.9416 28.1118C11.6244 27.6242 7.05533 25.9516 7.05533 18.4796C7.02635 16.5389 7.74689 14.6618 9.067 13.2389C8.86357 12.7481 8.19517 10.7655 9.25428 8.07253C9.25428 8.07253 10.8914 7.54943 14.6177 10.0713C17.8149 9.19728 21.1882 9.19728 24.3854 10.0713C28.0923 7.56235 29.7424 8.07253 29.7424 8.07253C30.8015 10.7591 30.1363 12.7417 29.9329 13.2389C31.2494 14.661 31.9675 16.5355 31.9381 18.4732C31.9381 25.9645 27.3787 27.6113 23.0357 28.0956C23.7332 28.6995 24.3564 29.8877 24.3564 31.7057C24.3564 34.3147 24.337 36.4168 24.337 37.0561C24.337 37.576 24.6857 38.1831 25.6738 37.9925C30.0621 36.5244 33.7853 33.5437 36.1779 29.5829C38.5706 25.6222 39.4768 20.9397 38.7346 16.3722C37.9924 11.8048 35.6501 7.65016 32.1264 4.65086C28.6027 1.65155 24.1273 0.00305025 19.4999 1.07935e-06Z" fill="white"/>
</svg>
