<svg width="39" height="39" viewBox="0 0 39 39" fill="none" xmlns="http://www.w3.org/2000/svg">
<g clip-path="url(#clip0)">
<path d="M39 19.9478C39 18.6223 38.8904 17.2895 38.6564 15.9855H19.8911V23.4946H30.6371C30.1912 25.9164 28.7584 28.0588 26.6604 29.4202V34.2925H33.0714C36.8362 30.8962 39 25.8806 39 19.9478Z" fill="#4285F4"/>
<path d="M19.8912 39C25.2569 39 29.782 37.2732 33.0789 34.2925L26.6678 29.4202C24.8841 30.6096 22.5814 31.2831 19.8986 31.2831C14.7083 31.2831 10.3075 27.851 8.72854 23.2366H2.11279V28.2594C5.49011 34.8442 12.369 39 19.8912 39Z" fill="#34A853"/>
<path d="M8.72108 23.2366C7.88772 20.8148 7.88772 18.1924 8.72108 15.7705V10.7478H2.11265C-0.709098 16.2578 -0.709098 22.7494 2.11265 28.2594L8.72108 23.2366Z" fill="#FBBC04"/>
<path d="M19.8912 7.71682C22.7276 7.67383 25.4689 8.71994 27.5231 10.6402L33.2031 5.07287C29.6065 1.76256 24.8329 -0.0573901 19.8912 -6.87453e-05C12.369 -6.87453e-05 5.49011 4.15573 2.11279 10.7477L8.72123 15.7705C10.2929 11.1489 14.701 7.71682 19.8912 7.71682Z" fill="#EA4335"/>
</g>
<defs>
<clipPath id="clip0">
<rect width="39" height="39" fill="white"/>
</clipPath>
</defs>
</svg>
